<svg width="593" height="436" viewBox="0 0 593 436" fill="none" xmlns="http://www.w3.org/2000/svg">
<path d="M415.207 178.191H129.864L409.314 435.992H592.724L418.486 280.555H447.281C459.893 280.555 472.641 277.397 485.527 271.079C498.413 264.753 510.198 256.418 520.891 246.053C531.584 235.691 540.358 223.563 547.211 209.658C554.063 195.759 557.489 181.225 557.489 166.063V113.746C557.489 97.0607 554.337 81.7712 548.032 67.8692C541.724 53.9701 533.224 41.9635 522.537 31.8523C511.843 21.741 499.781 13.9087 486.348 8.34957C472.915 2.78485 459.343 0.00390625 445.636 0.00390625H0.685547V108.433C138.856 108.433 277.031 108.433 415.201 108.433V178.191H415.207Z" fill="black" fill-opacity="0.1"/>
<path fill-rule="evenodd" clip-rule="evenodd" d="M76.3359 435.992V227.683L302.553 435.992H76.3359Z" fill="black" fill-opacity="0.1"/>
</svg>
