<svg width="27" height="24" viewBox="0 0 27 24" fill="none" xmlns="http://www.w3.org/2000/svg">
<path d="M23.5 22.25C24.163 22.25 24.7989 21.9866 25.2678 21.5178C25.7366 21.0489 26 20.413 26 19.75V7.25C26 6.58696 25.7366 5.95107 25.2678 5.48223C24.7989 5.01339 24.163 4.75 23.5 4.75H13.625C13.2069 4.7541 12.7944 4.65326 12.4254 4.45672C12.0563 4.26019 11.7425 3.97422 11.5125 3.625L10.5 2.125C10.2724 1.77934 9.96247 1.4956 9.59812 1.29925C9.23378 1.10289 8.82639 1.00007 8.4125 1H3.5C2.83696 1 2.20107 1.26339 1.73223 1.73223C1.26339 2.20107 1 2.83696 1 3.5V19.75C1 20.413 1.26339 21.0489 1.73223 21.5178C2.20107 21.9866 2.83696 22.25 3.5 22.25H23.5Z" stroke="black" stroke-width="2" stroke-linecap="round" stroke-linejoin="round"/>
<path d="M13.5 9.75V17.25" stroke="#FF6B13" stroke-width="2" stroke-linecap="round" stroke-linejoin="round"/>
<path d="M17.25 13.5L13.5 17.25L9.75 13.5" stroke="#FF6B13" stroke-width="2" stroke-linecap="round" stroke-linejoin="round"/>
</svg>
