<svg width="27" height="27" viewBox="0 0 27 27" fill="none" xmlns="http://www.w3.org/2000/svg">
<path d="M25.013 18.3626C24.2178 20.2432 22.974 21.9004 21.3904 23.1892C19.8067 24.4781 17.9315 25.3594 15.9286 25.7561C13.9256 26.1528 11.856 26.0528 9.90069 25.4648C7.94534 24.8769 6.16379 23.8189 4.71178 22.3834C3.25977 20.9479 2.18152 19.1785 1.5713 17.23C0.961074 15.2815 0.837456 13.2132 1.21125 11.2059C1.58505 9.19857 2.44487 7.31338 3.71556 5.71513C4.98625 4.11689 6.62911 2.85424 8.5005 2.0376" stroke="black" stroke-width="2" stroke-linecap="round" stroke-linejoin="round"/>
<path d="M26 13.5C26 11.8585 25.6767 10.233 25.0485 8.71646C24.4203 7.19989 23.4996 5.8219 22.3388 4.66117C21.1781 3.50043 19.8001 2.57969 18.2835 1.95151C16.767 1.32332 15.1415 1 13.5 1V13.5H26Z" stroke="#FF6B13" stroke-width="2" stroke-linecap="round" stroke-linejoin="round"/>
</svg>
