<svg width="27" height="27" viewBox="0 0 27 27" fill="none" xmlns="http://www.w3.org/2000/svg">
<path d="M13.4995 14.8895C14.2669 14.8895 14.8891 14.2674 14.8891 13.4999C14.8891 12.7325 14.2669 12.1104 13.4995 12.1104C12.732 12.1104 12.1099 12.7325 12.1099 13.4999C12.1099 14.2674 12.732 14.8895 13.4995 14.8895Z" fill="black" stroke="black" stroke-width="2" stroke-linecap="round" stroke-linejoin="round"/>
<path d="M24.8946 24.8946C27.7293 22.0737 24.9224 14.6673 18.6415 8.35854C12.3327 2.07761 4.92626 -0.72935 2.1054 2.1054C-0.72935 4.92626 2.07761 12.3327 8.35854 18.6415C14.6673 24.9224 22.0737 27.7293 24.8946 24.8946Z" stroke="#FF6B13" stroke-width="2" stroke-linecap="round" stroke-linejoin="round"/>
<path d="M18.6415 18.6415C24.9224 12.3327 27.7293 4.92626 24.8946 2.1054C22.0737 -0.72935 14.6673 2.07761 8.35854 8.35854C2.07761 14.6673 -0.72935 22.0737 2.1054 24.8946C4.92626 27.7293 12.3327 24.9224 18.6415 18.6415Z" stroke="#FF6B13" stroke-width="2" stroke-linecap="round" stroke-linejoin="round"/>
</svg>
