<svg width="27" height="25" viewBox="0 0 27 25" fill="none" xmlns="http://www.w3.org/2000/svg">
<path d="M4.75 8.5C6.82107 8.5 8.5 6.82107 8.5 4.75C8.5 2.67893 6.82107 1 4.75 1C2.67893 1 1 2.67893 1 4.75C1 6.82107 2.67893 8.5 4.75 8.5Z" stroke="black" stroke-width="2" stroke-linecap="round" stroke-linejoin="round"/>
<path d="M4.75 8.5V23.5" stroke="black" stroke-width="2" stroke-linecap="round" stroke-linejoin="round"/>
<path d="M22.25 23.5C24.3211 23.5 26 21.8211 26 19.75C26 17.6789 24.3211 16 22.25 16C20.1789 16 18.5 17.6789 18.5 19.75C18.5 21.8211 20.1789 23.5 22.25 23.5Z" stroke="#FF6B13" stroke-width="2" stroke-linecap="round" stroke-linejoin="round"/>
<path d="M17.25 8.5L13.5 4.75L17.25 1" stroke="#FF6B13" stroke-width="2" stroke-linecap="round" stroke-linejoin="round"/>
<path d="M13.5 4.75H19.75C20.413 4.75 21.0489 5.01339 21.5178 5.48223C21.9866 5.95107 22.25 6.58696 22.25 7.25V16" stroke="#FF6B13" stroke-width="2" stroke-linecap="round" stroke-linejoin="round"/>
</svg>
