<?xml version="1.0" standalone="no"?>
<!DOCTYPE svg PUBLIC "-//W3C//DTD SVG 20010904//EN"
 "http://www.w3.org/TR/2001/REC-SVG-20010904/DTD/svg10.dtd">
<svg version="1.0" xmlns="http://www.w3.org/2000/svg"
 width="832.000000pt" height="832.000000pt" viewBox="0 0 832.000000 832.000000"
 preserveAspectRatio="xMidYMid meet">
<metadata>
Created by potrace 1.14, written by Peter Selinger 2001-2017
</metadata>
<g transform="translate(0.000000,832.000000) scale(0.100000,-0.100000)"
fill="#000000" stroke="none">
<path d="M0 6462 l0 -738 2812 0 c1987 1 2815 -2 2822 -10 8 -7 10 -151 9
-460 -1 -247 -2 -456 -2 -465 -1 -14 -184 -15 -1927 -15 -1059 1 -1931 -2
-1937 -6 -9 -6 -9 -10 -1 -15 12 -8 138 -122 210 -190 22 -21 85 -78 138 -128
54 -49 113 -103 130 -120 41 -37 229 -211 266 -245 15 -14 71 -65 125 -115 53
-49 109 -101 124 -115 15 -14 76 -70 135 -125 60 -55 121 -111 136 -125 95
-87 219 -202 261 -241 27 -25 84 -78 126 -117 43 -38 96 -88 119 -109 23 -21
92 -85 155 -143 62 -58 140 -130 173 -160 33 -30 67 -62 76 -70 89 -82 228
-211 254 -235 18 -16 76 -70 130 -120 54 -49 118 -108 141 -130 24 -22 82 -76
131 -120 48 -44 106 -98 129 -120 24 -22 83 -77 131 -121 249 -229 346 -318
378 -349 33 -31 213 -197 280 -258 l39 -35 1249 0 c1241 0 1248 0 1226 20 -27
23 -140 123 -172 153 -12 11 -53 47 -91 80 -37 33 -80 71 -95 85 -15 14 -58
52 -95 85 -38 33 -79 69 -91 80 -12 12 -53 48 -89 80 -37 33 -84 75 -104 93
-20 18 -60 54 -89 80 -62 54 -88 78 -165 147 -30 28 -72 65 -93 83 -22 19 -59
52 -84 75 -25 23 -79 71 -120 107 -41 36 -81 72 -90 80 -48 44 -192 173 -235
210 -27 24 -52 46 -55 49 -3 3 -41 38 -84 76 -44 39 -94 84 -112 100 -18 17
-54 48 -80 70 -26 22 -55 47 -63 56 -13 14 -148 134 -255 229 -16 14 -42 37
-58 52 l-29 27 228 0 c215 0 284 3 343 16 14 4 34 7 45 9 11 2 47 11 80 21 33
10 65 19 70 21 6 1 31 11 58 23 26 11 48 20 50 19 3 -3 111 56 117 63 3 4 15
9 28 13 12 4 22 12 22 17 0 5 5 9 12 9 12 0 82 44 106 68 7 6 17 12 21 12 5 0
19 10 33 23 13 12 39 33 57 47 108 82 296 293 383 430 51 80 152 281 149 297
0 2 8 23 19 48 11 25 19 46 19 48 -1 1 4 20 9 42 6 22 13 56 16 75 3 19 9 46
12 60 5 20 14 290 15 480 1 141 -10 632 -15 660 -4 19 -8 47 -10 61 -14 96
-79 285 -138 404 -30 59 -128 216 -151 241 -7 7 -23 27 -36 44 -102 133 -327
314 -496 398 -136 68 -286 122 -391 141 -32 6 -70 14 -84 18 -14 4 -1428 9
-3142 10 l-3118 3 0 -738z"/>
</g>
</svg>
