<svg width="38" height="38" viewBox="0 0 38 38" fill="none" xmlns="http://www.w3.org/2000/svg">
<path d="M3.53382 29.8234L3.54145 29.8026L3.54845 29.7815C3.66569 29.4284 3.75653 29.1956 3.82471 29.0227C3.82854 29.013 3.83342 29.0009 3.83913 28.9868C3.88816 28.8657 3.99911 28.5915 4.04093 28.3319C4.12457 27.8128 3.97255 27.4124 3.8313 27.1485C3.78768 27.067 3.73546 26.9814 3.70394 26.9298C3.70036 26.9239 3.69705 26.9185 3.69405 26.9135C3.65607 26.8511 3.61793 26.7879 3.57361 26.7094L2.378 27.3847L3.57361 26.7094C2.34521 24.5346 1.50829 21.6668 1.50006 18.3823V18.3334C1.50006 17.0944 1.70164 15.6499 1.96033 14.6206L1.96033 14.6205C2.40361 12.8566 3.18594 10.8809 4.13718 9.45862L5.54503 7.53998C5.96991 6.99539 7.02154 5.9453 7.55726 5.53157L7.55726 5.53157C9.80104 3.79872 11.8733 2.56056 14.5828 1.97177L14.2981 0.661343L14.5828 1.97177C19.7455 0.849913 24.0689 1.72955 28.3918 4.59862C28.7863 4.86047 29.1398 5.13947 29.5503 5.47059L30.6451 6.47516C35.5605 11.4091 36.9881 18.5898 34.3561 25.1359L35.7369 25.6911L34.356 25.1359C33.2157 27.9722 30.8643 30.9049 28.298 32.6044L29.0179 33.6915L28.298 32.6044C22.7919 36.2506 16.2156 36.6939 10.4639 33.5841L9.76679 34.8734L10.4639 33.5841C10.4292 33.5654 10.4034 33.5485 10.3519 33.5122C10.3506 33.5113 10.3483 33.5096 10.345 33.5073C10.3066 33.4794 10.1386 33.3576 9.95348 33.2697C9.67995 33.1399 9.37639 33.0741 9.04733 33.0904C8.76908 33.1042 8.52398 33.1751 8.34605 33.2354L8.34599 33.2354C8.03963 33.3391 7.33128 33.6037 6.48888 33.9185C5.89649 34.1398 5.23782 34.3859 4.60604 34.6182C3.82098 34.9069 3.06227 35.1801 2.46917 35.38C2.171 35.4805 1.92982 35.5573 1.7549 35.6073C1.72075 35.6171 1.69141 35.6252 1.66659 35.6318C1.6261 35.6196 1.58825 35.5972 1.55536 35.5649C1.50739 35.5178 1.50092 35.4818 1.50014 35.4795C1.50078 35.4633 1.50621 35.4077 1.5417 35.2897C1.56023 35.228 1.58368 35.1596 1.61406 35.0761C1.62892 35.0353 1.64407 34.9945 1.66109 34.9487L1.66238 34.9453C1.67896 34.9007 1.69763 34.8504 1.71592 34.7999C1.71621 34.7991 1.7165 34.7983 1.71678 34.7975L3.53382 29.8234ZM1.56067 35.657C1.56089 35.6569 1.56595 35.6558 1.57519 35.6543C1.56507 35.6565 1.56045 35.6572 1.56067 35.657Z" fill="#FF6B13" stroke="black" stroke-width="3"/>
</svg>
