<svg width="314" height="33" viewBox="0 0 314 33" fill="none" xmlns="http://www.w3.org/2000/svg">
<path d="M194.972 0H158.062V8.09696H171.718V32.5576H181.315V8.09696H194.972V0Z" fill="black"/>
<path d="M230.209 20.1011V12.5138H211.179V20.1011H230.209ZM206.901 24.4606V8.09696H234.487V0H203.994C203.08 0 202.22 0.226413 201.416 0.67945C200.612 1.1327 199.908 1.74644 199.305 2.52003C198.701 3.29384 198.226 4.19949 197.879 5.23783C197.531 6.27575 197.358 7.37981 197.358 8.54999V24.0078C197.358 25.1782 197.531 26.2823 197.879 27.3202C198.226 28.3585 198.701 29.2644 199.305 30.038C199.908 30.8118 200.612 31.4253 201.416 31.8783C202.22 32.3312 203.08 32.5578 203.994 32.5578H234.487V24.4608H206.901V24.4606Z" fill="black"/>
<path d="M246.415 24.4608H274.002V32.5578H243.508C242.595 32.5578 241.735 32.3314 240.931 31.8783C240.126 31.4255 239.422 30.8118 238.819 30.038C238.216 29.2642 237.74 28.3585 237.393 27.3202C237.046 26.2823 236.873 25.1782 236.873 24.0078V8.54999C236.873 7.37981 237.046 6.27596 237.393 5.23783C237.741 4.19949 238.216 3.29363 238.819 2.52003C239.422 1.74622 240.126 1.1327 240.931 0.67945C241.735 0.226623 242.595 0 243.508 0H274.002V8.09696H246.415V24.4606V24.4608Z" fill="black"/>
<path d="M303.975 0V13.3064H285.932V0H276.389V32.5576H285.932V20.8934H303.975V32.5576H313.518V0H303.975Z" fill="black"/>
<path d="M27.6417 13.3069H8.61409L27.2488 32.5583H39.4792L27.8604 20.951H29.7805C30.6216 20.951 31.4716 20.7151 32.3309 20.2433C33.1902 19.7709 33.9761 19.1485 34.6891 18.3745C35.4022 17.6007 35.9873 16.6951 36.4442 15.6567C36.9011 14.6188 37.1296 13.5335 37.1296 12.4012V8.49449C37.1296 7.24848 36.9194 6.10673 36.499 5.0686C36.0784 4.03068 35.5115 3.13408 34.7989 2.37902C34.0858 1.62396 33.2815 1.03907 32.3857 0.623948C31.4899 0.208401 30.5849 0.000732422 29.6708 0.000732422H0V8.09769C9.21366 8.09769 18.4277 8.09769 27.6414 8.09769V13.3069H27.6417Z" fill="black"/>
<path d="M46.1519 0C45.2381 0 44.3786 0.226413 43.5743 0.67945C42.7699 1.1327 42.0659 1.73654 41.4628 2.49139C40.8596 3.24645 40.3841 4.15252 40.037 5.20919C39.6896 6.26627 39.5161 7.37981 39.5161 8.54978V24.0076C39.5161 25.2155 39.6896 26.3385 40.037 27.3768C40.3842 28.4145 40.8596 29.3111 41.4628 30.066C42.0659 30.821 42.7699 31.4251 43.5743 31.8779C44.3786 32.3307 45.2381 32.5574 46.1519 32.5574H69.8994C70.8137 32.5574 71.6822 32.331 72.5048 31.8779C73.3273 31.4251 74.0404 30.8208 74.6437 30.066C75.2469 29.3109 75.7315 28.4143 76.0971 27.3768C76.4628 26.3385 76.6455 25.2155 76.6455 24.0076V8.54978C76.6455 7.41751 76.4628 6.3322 76.0971 5.29428C75.7315 4.25636 75.2469 3.35049 74.6437 2.57606C74.0406 1.80225 73.3275 1.17988 72.5048 0.707884C71.6822 0.236313 70.8137 0 69.8994 0H46.1519ZM67.0478 24.4606H49.0587V8.09696H67.0478V24.4606Z" fill="black"/>
<path d="M88.5745 24.4608H116.161V32.5578H85.6676C84.7537 32.5578 83.8942 32.3314 83.0899 31.8783C82.2856 31.4255 81.5815 30.8118 80.9784 30.038C80.3752 29.2642 79.8997 28.3585 79.5526 27.3202C79.2052 26.2823 79.0317 25.1782 79.0317 24.0078V8.54999C79.0317 7.37981 79.2052 6.27596 79.5526 5.23783C79.8999 4.19949 80.3752 3.29363 80.9784 2.52003C81.5815 1.74622 82.2856 1.1327 83.0899 0.67945C83.8942 0.226623 84.7537 0 85.6676 0H116.161V8.09696H88.5745V24.4606V24.4608Z" fill="black"/>
<path d="M128.088 0H118.545V32.5576H128.088V20.2706L143.225 32.5576H155.675L136.973 16.3074L155.675 0H143.225L128.088 12.6834V0Z" fill="black"/>
<path fill-rule="evenodd" clip-rule="evenodd" d="M5.0459 32.5577V16.99L20.1249 32.5577H5.0459Z" fill="black"/>
</svg>
