<svg width="599" height="56" viewBox="0 0 599 56" fill="none" xmlns="http://www.w3.org/2000/svg">
<path d="M372.355 0H301.865V13.8169H327.946V55.5573H346.275V13.8169H372.355V0Z" fill="black"/>
<path d="M439.647 34.3011V21.354H403.303V34.3011H439.647ZM395.133 41.7404V13.8169H447.817V0H389.581C387.836 0 386.194 0.386359 384.658 1.15944C383.122 1.93287 381.778 2.98018 380.626 4.30026C379.474 5.62071 378.566 7.16615 377.903 8.93801C377.24 10.7092 376.908 12.5931 376.908 14.59V40.9677C376.908 42.9649 377.24 44.8489 377.903 46.62C378.566 48.3919 379.474 49.9377 380.626 51.2578C381.778 52.5782 383.122 53.6252 384.658 54.3983C386.194 55.171 387.836 55.5577 389.581 55.5577H447.817V41.7408H395.133V41.7404Z" fill="black"/>
<path d="M470.602 41.7408H523.286V55.5577H465.05C463.305 55.5577 461.663 55.1713 460.127 54.3983C458.591 53.6255 457.247 52.5782 456.095 51.2578C454.943 49.9373 454.035 48.3919 453.372 46.62C452.708 44.8489 452.377 42.9649 452.377 40.9677V14.59C452.377 12.5931 452.708 10.7095 453.372 8.93801C454.035 7.16615 454.943 5.62035 456.095 4.30026C457.247 2.97982 458.591 1.93287 460.127 1.15944C461.663 0.386718 463.305 0 465.05 0H523.286V13.8169H470.602V41.7404V41.7408Z" fill="black"/>
<path d="M580.524 0V22.7064H546.065V0H527.84V55.5573H546.065V35.6532H580.524V55.5573H598.749V0H580.524Z" fill="black"/>
<path d="M52.7896 22.706H16.451L52.0392 55.5573H75.3964L53.2072 35.7502H56.8742C58.4804 35.7502 60.1038 35.3477 61.7448 34.5426C63.3859 33.7365 64.8868 32.6745 66.2485 31.3537C67.6103 30.0332 68.7277 28.4878 69.6003 26.7159C70.473 24.9448 70.9093 23.0928 70.9093 21.1606V14.494C70.9093 12.3678 70.5078 10.4195 69.7049 8.64797C68.9016 6.87683 67.8191 5.34685 66.4581 4.05839C65.0963 2.76992 63.5602 1.77186 61.8494 1.06348C60.1387 0.354372 58.4103 0 56.6647 0H0V13.8169C17.596 13.8169 35.1928 13.8169 52.7889 13.8169V22.706H52.7896Z" fill="black"/>
<path d="M88.1358 0C86.3906 0 84.7492 0.386359 83.2131 1.15944C81.677 1.93287 80.3324 2.96328 79.1806 4.25139C78.0287 5.53985 77.1205 7.086 76.4577 8.88913C75.7943 10.693 75.4629 12.5931 75.4629 14.5896V40.9673C75.4629 43.0285 75.7943 44.9449 76.4577 46.7167C77.1208 48.4875 78.0287 50.0175 79.1806 51.3056C80.3324 52.5941 81.677 53.6248 83.2131 54.3975C84.7492 55.1703 86.3906 55.557 88.1358 55.557H133.488C135.234 55.557 136.893 55.1706 138.464 54.3975C140.035 53.6248 141.397 52.5937 142.549 51.3056C143.701 50.0171 144.626 48.4871 145.325 46.7167C146.023 44.9449 146.372 43.0285 146.372 40.9673V14.5896C146.372 12.6575 146.023 10.8055 145.325 9.03433C144.626 7.26319 143.701 5.71739 142.549 4.39587C141.397 3.07542 140.035 2.01338 138.464 1.20796C136.893 0.403252 135.234 0 133.488 0H88.1358ZM128.042 41.7404H93.6872V13.8169H128.042V41.7404Z" fill="black"/>
<path d="M169.156 41.7408H221.84V55.5577H163.605C161.859 55.5577 160.218 55.1713 158.682 54.3983C157.146 53.6255 155.801 52.5782 154.649 51.2578C153.497 49.9373 152.589 48.3919 151.926 46.62C151.263 44.8489 150.932 42.9649 150.932 40.9677V14.59C150.932 12.5931 151.263 10.7095 151.926 8.93801C152.59 7.16615 153.497 5.62035 154.649 4.30026C155.801 2.97982 157.146 1.93287 158.682 1.15944C160.218 0.386718 161.859 0 163.605 0H221.84V13.8169H169.156V41.7404V41.7408Z" fill="black"/>
<path d="M244.621 0H226.396V55.5573H244.621V34.5904L273.53 55.5573H297.305L261.589 27.8275L297.305 0H273.53L244.621 21.6433V0Z" fill="black"/>
<path fill-rule="evenodd" clip-rule="evenodd" d="M9.63672 55.5556V28.9902L38.4343 55.5556H9.63672Z" fill="black"/>
</svg>
