<svg width="200" height="19" viewBox="0 0 200 19" fill="none" xmlns="http://www.w3.org/2000/svg">
<path d="M124.377 0H100.832V4.61526H109.543V18.5578H115.666V4.61526H124.377V0Z" fill="white"/>
<path d="M146.855 11.4576V7.13287H134.716V11.4576H146.855ZM131.987 13.9426V4.61526H149.585V0H130.132C129.549 0 129.001 0.129056 128.488 0.387287C127.975 0.645638 127.526 0.995468 127.141 1.43642C126.756 1.87749 126.453 2.39371 126.231 2.98556C126.01 3.57718 125.899 4.20649 125.899 4.8735V13.6844C125.899 14.3516 126.01 14.9809 126.231 15.5725C126.453 16.1644 126.756 16.6807 127.141 17.1216C127.526 17.5627 127.975 17.9124 128.488 18.1707C129.001 18.4288 129.549 18.5579 130.132 18.5579H149.585V13.9427H131.987V13.9426Z" fill="white"/>
<path d="M157.195 13.9427H174.793V18.5579H155.34C154.757 18.5579 154.209 18.4289 153.696 18.1707C153.183 17.9125 152.734 17.5627 152.349 17.1216C151.964 16.6806 151.661 16.1644 151.439 15.5725C151.218 14.9809 151.107 14.3516 151.107 13.6844V4.8735C151.107 4.20649 151.218 3.5773 151.439 2.98556C151.661 2.39371 151.964 1.87737 152.349 1.43642C152.734 0.995348 153.183 0.645637 153.696 0.387286C154.209 0.129175 154.757 0 155.34 0H174.793V4.61526H157.195V13.9426V13.9427Z" fill="white"/>
<path d="M193.913 0V7.58462H182.402V0H176.314V18.5578H182.402V11.9092H193.913V18.5578H200V0H193.913Z" fill="white"/>
<path d="M17.6333 7.58499H5.49512L17.3826 18.5583H25.1847L17.7728 11.9421H18.9977C19.5342 11.9421 20.0765 11.8077 20.6246 11.5388C21.1728 11.2695 21.6741 10.9147 22.129 10.4736C22.5839 10.0325 22.9571 9.51626 23.2486 8.9244C23.5401 8.33279 23.6858 7.71416 23.6858 7.06877V4.84193C23.6858 4.1317 23.5517 3.48091 23.2835 2.88917C23.0152 2.29756 22.6536 1.7865 22.199 1.35611C21.7441 0.925726 21.231 0.592343 20.6596 0.355721C20.0881 0.118859 19.5108 0.000488281 18.9277 0.000488281H0V4.61575C5.87761 4.61575 11.7555 4.61575 17.6331 4.61575V7.58499H17.6333Z" fill="white"/>
<path d="M29.4407 0C28.8577 0 28.3094 0.129056 27.7963 0.387287C27.2832 0.645638 26.8341 0.989826 26.4493 1.42009C26.0646 1.85048 25.7612 2.36694 25.5398 2.96924C25.3182 3.57178 25.2075 4.20649 25.2075 4.87338V13.6843C25.2075 14.3728 25.3182 15.0129 25.5398 15.6048C25.7613 16.1963 26.0646 16.7073 26.4493 17.1376C26.8341 17.568 27.2832 17.9123 27.7963 18.1704C28.3094 18.4285 28.8577 18.5577 29.4407 18.5577H44.5897C45.1729 18.5577 45.727 18.4286 46.2517 18.1704C46.7765 17.9123 47.2314 17.5679 47.6162 17.1376C48.001 16.7072 48.3101 16.1962 48.5434 15.6048C48.7767 15.0129 48.8932 14.3728 48.8932 13.6843V4.87338C48.8932 4.22798 48.7767 3.60935 48.5434 3.01774C48.3101 2.42612 48.001 1.90978 47.6162 1.46835C47.2315 1.02728 46.7766 0.672529 46.2517 0.403494C45.727 0.134698 45.1729 0 44.5897 0H29.4407ZM42.7706 13.9426H31.295V4.61526H42.7706V13.9426Z" fill="white"/>
<path d="M56.5036 13.9427H74.1016V18.5579H54.6492C54.0662 18.5579 53.5179 18.4289 53.0048 18.1707C52.4917 17.9125 52.0426 17.5627 51.6578 17.1216C51.2731 16.6806 50.9697 16.1644 50.7483 15.5725C50.5267 14.9809 50.416 14.3516 50.416 13.6844V4.8735C50.416 4.20649 50.5267 3.5773 50.7483 2.98556C50.9698 2.39371 51.2731 1.87737 51.6578 1.43642C52.0426 0.995348 52.4917 0.645637 53.0048 0.387286C53.5179 0.129175 54.0662 0 54.6492 0H74.1016V4.61526H56.5036V13.9426V13.9427Z" fill="white"/>
<path d="M81.7107 0H75.623V18.5578H81.7107V11.5542L91.367 18.5578H99.3087L87.3785 9.29524L99.3087 0H91.367L81.7107 7.22951V0Z" fill="white"/>
<path fill-rule="evenodd" clip-rule="evenodd" d="M3.21875 18.5579V9.68433L12.838 18.5579H3.21875Z" fill="white"/>
</svg>
