<svg width="200" height="19" viewBox="0 0 200 19" fill="none" xmlns="http://www.w3.org/2000/svg">
<path d="M124.374 0H100.828V4.61526H109.54V18.5578H115.662V4.61526H124.374V0Z" fill="#904120"/>
<path d="M146.855 11.4576V7.13287H134.715V11.4576H146.855ZM131.986 13.9426V4.61526H149.584V0H130.132C129.549 0 129 0.129056 128.487 0.387287C127.974 0.645638 127.525 0.995468 127.14 1.43642C126.755 1.87749 126.452 2.39371 126.231 2.98556C126.009 3.57718 125.898 4.20649 125.898 4.8735V13.6844C125.898 14.3516 126.009 14.9809 126.231 15.5725C126.452 16.1643 126.755 16.6807 127.14 17.1216C127.525 17.5627 127.974 17.9124 128.487 18.1707C129 18.4288 129.549 18.5579 130.132 18.5579H149.584V13.9427H131.986V13.9426Z" fill="#904120"/>
<path d="M157.197 13.9427H174.795V18.5579H155.343C154.76 18.5579 154.211 18.4289 153.698 18.1707C153.185 17.9125 152.736 17.5627 152.351 17.1216C151.966 16.6806 151.663 16.1643 151.442 15.5725C151.22 14.9809 151.109 14.3516 151.109 13.6844V4.8735C151.109 4.20649 151.22 3.5773 151.442 2.98556C151.663 2.39371 151.966 1.87737 152.351 1.43642C152.736 0.995348 153.185 0.645637 153.698 0.387286C154.211 0.129175 154.76 0 155.343 0H174.795V4.61526H157.197V13.9426V13.9427Z" fill="#904120"/>
<path d="M193.911 0V7.58462H182.4V0H176.312V18.5578H182.4V11.9092H193.911V18.5578H199.998V0H193.911Z" fill="#904120"/>
<path d="M17.6333 7.5845H5.49512L17.3826 18.5578H25.1847L17.7728 11.9417H18.9977C19.5342 11.9417 20.0765 11.8072 20.6246 11.5383C21.1728 11.269 21.6741 10.9143 22.129 10.4731C22.5839 10.032 22.9571 9.51577 23.2486 8.92392C23.5401 8.3323 23.6858 7.71368 23.6858 7.06828V4.84144C23.6858 4.13122 23.5517 3.48042 23.2835 2.88868C23.0152 2.29707 22.6536 1.78601 22.199 1.35562C21.7441 0.925238 21.231 0.591854 20.6596 0.355233C20.0881 0.118371 19.5108 0 18.9277 0H0V4.61526C5.87761 4.61526 11.7555 4.61526 17.6331 4.61526V7.5845H17.6333Z" fill="#FF6B13"/>
<path d="M29.4441 0C28.8611 0 28.3128 0.129056 27.7997 0.387287C27.2866 0.645638 26.8375 0.989826 26.4528 1.42009C26.068 1.85048 25.7646 2.36694 25.5432 2.96924C25.3216 3.57178 25.2109 4.20649 25.2109 4.87338V13.6843C25.2109 14.3728 25.3216 15.0129 25.5432 15.6048C25.7647 16.1963 26.068 16.7073 26.4528 17.1376C26.8375 17.568 27.2866 17.9123 27.7997 18.1704C28.3128 18.4285 28.8611 18.5577 29.4441 18.5577H44.5932C45.1764 18.5577 45.7304 18.4286 46.2551 18.1704C46.7799 17.9123 47.2348 17.5679 47.6197 17.1376C48.0044 16.7072 48.3136 16.1962 48.5468 15.6048C48.7801 15.0129 48.8966 14.3728 48.8966 13.6843V4.87338C48.8966 4.22798 48.7801 3.60935 48.5468 3.01774C48.3136 2.42612 48.0044 1.90978 47.6197 1.46835C47.2349 1.02728 46.78 0.672529 46.2551 0.403494C45.7304 0.134698 45.1764 0 44.5932 0H29.4441ZM42.774 13.9426H31.2984V4.61526H42.774V13.9426Z" fill="#FF6B13"/>
<path d="M56.5016 13.9427H74.0996V18.5579H54.6472C54.0642 18.5579 53.516 18.4289 53.0029 18.1707C52.4898 17.9125 52.0406 17.5627 51.6559 17.1216C51.2711 16.6806 50.9677 16.1643 50.7464 15.5725C50.5247 14.9809 50.4141 14.3516 50.4141 13.6844V4.8735C50.4141 4.20649 50.5247 3.5773 50.7464 2.98556C50.9679 2.39371 51.2711 1.87737 51.6559 1.43642C52.0406 0.995348 52.4898 0.645637 53.0029 0.387286C53.516 0.129175 54.0642 0 54.6472 0H74.0996V4.61526H56.5016V13.9426V13.9427Z" fill="#FF6B13"/>
<path d="M81.7127 0H75.625V18.5578H81.7127V11.5542L91.3689 18.5578H99.3107L87.3805 9.29524L99.3107 0H91.3689L81.7127 7.22951V0Z" fill="#FF6B13"/>
<path fill-rule="evenodd" clip-rule="evenodd" d="M3.21875 18.5572V9.68359L12.838 18.5572H3.21875Z" fill="#FF6B13"/>
</svg>
