<svg width="68" height="68" viewBox="0 0 68 68" fill="none" xmlns="http://www.w3.org/2000/svg">
<path d="M6.00287 53.5728L6.0105 53.5519L6.0175 53.5308C6.23854 52.8652 6.41109 52.4229 6.53778 52.1016C6.54801 52.0757 6.55907 52.048 6.57075 52.0187C6.66779 51.7758 6.80731 51.4265 6.85882 51.1069C6.95346 50.5195 6.78814 50.0698 6.60817 49.7336C6.54683 49.619 6.47162 49.4956 6.41221 49.3981L6.39366 49.3676C6.32348 49.2523 6.24666 49.1251 6.15702 48.9664L4.85095 49.7041L6.15701 48.9664C3.83905 44.8626 2.28081 39.4917 2.26574 33.3739V33.2843C2.26574 30.946 2.6429 28.2451 3.13124 26.302L3.13125 26.302C3.95502 23.024 5.41615 19.3151 7.23468 16.6044L9.79641 13.1133C10.6185 12.0548 12.5966 10.0788 13.6462 9.26817L12.7507 8.10866L13.6462 9.26816C17.7586 6.09218 21.6566 3.74538 26.7835 2.6313L26.465 1.16551L26.7835 2.6313C36.4109 0.539228 44.5309 2.19326 52.5828 7.53714C53.3538 8.04889 54.0364 8.59017 54.7898 9.19814L56.8102 11.0519C66.0267 20.2883 68.7007 33.7478 63.779 45.9887L65.0603 46.5038L63.779 45.9887C61.6361 51.3183 57.2454 56.7979 52.4127 59.9982C42.1442 66.7984 29.8215 67.6447 19.046 61.8186L18.393 63.0263L19.046 61.8186C18.9216 61.7513 18.83 61.6892 18.7239 61.6145C18.7166 61.6094 18.7076 61.603 18.6972 61.5955C18.6062 61.5304 18.4032 61.3854 18.1828 61.2808C17.4478 60.932 16.7629 61.0768 16.1879 61.2715L16.1878 61.2715C15.6509 61.4533 14.4115 61.9164 12.9182 62.4744C11.8473 62.8745 10.6457 63.3235 9.4791 63.7525C8.06254 64.2734 6.68299 64.7704 5.59821 65.1359C5.0542 65.3193 4.59947 65.4644 4.25812 65.562C4.0866 65.6111 3.95918 65.6437 3.87187 65.6629C3.85764 65.666 3.84562 65.6685 3.83572 65.6705C2.91614 65.6361 2.26574 64.8611 2.26574 64.1816C2.26574 63.8018 2.40443 63.4229 2.62641 62.8163C2.6583 62.7292 2.6919 62.6374 2.72705 62.5402C2.72733 62.5394 2.7276 62.5387 2.72788 62.5379L6.00287 53.5728Z" fill="#FF6B13" stroke="black" stroke-width="3"/>
</svg>
